<?xml version="1.0" encoding="UTF-8"?>
<svg version="1.1" xmlns="http://www.w3.org/2000/svg" width="131" height="111">
<path d="M0 0 C43.23 0 86.46 0 131 0 C131 36.63 131 73.26 131 111 C87.77 111 44.54 111 0 111 C0 74.37 0 37.74 0 0 Z " fill="#FDFDFD" transform="translate(0,0)"/>
<path d="M0 0 C1.5467031 -0.01650766 3.09333154 -0.04372934 4.63964844 -0.08203125 C14.74856145 -0.33040749 23.64759533 -0.16927739 31.50537109 7.0612793 C36.11392203 11.93118192 39.79645127 17.85419895 40.08325195 24.66259766 C39.64575195 28.35009766 39.64575195 28.35009766 38.53259277 30.05630493 C35.7139998 31.98899318 33.41210918 31.73158816 30.01879883 31.73828125 C29.35018326 31.74353821 28.68156769 31.74879517 27.99269104 31.75421143 C25.78305688 31.76741291 23.57414341 31.75867347 21.36450195 31.74853516 C19.82897808 31.75055587 18.29345515 31.75346728 16.75793457 31.75723267 C13.53994611 31.76165619 10.32220747 31.75522425 7.10424805 31.74121094 C2.97801579 31.72411877 -1.14763109 31.73395984 -5.27384186 31.75192833 C-8.44456396 31.76276554 -11.61514714 31.75932017 -14.78587341 31.75154495 C-16.30732797 31.74954276 -17.82879512 31.75200292 -19.35023499 31.75898361 C-21.47626183 31.76659738 -23.60133888 31.75499648 -25.72729492 31.73828125 C-26.93736206 31.73589447 -28.1474292 31.73350769 -29.39416504 31.73104858 C-32.35424805 31.35009766 -32.35424805 31.35009766 -34.23693848 29.94302368 C-36.08769369 27.3044388 -35.94720926 25.09822495 -35.8190918 21.95166016 C-34.46844239 14.39256347 -30.41940228 8.69489626 -24.29174805 4.22509766 C-16.87764577 -0.67078662 -8.55928761 0.06673557 0 0 Z " fill="#6B7280" transform="translate(62.354248046875,77.64990234375)"/>
<path d="M0 0 C5.21863338 3.0524082 8.94962747 7.34464576 11.3125 12.9375 C11.89193195 20.00656981 10.49726628 24.73317613 6.4375 30.6875 C3.3429871 33.96404307 0.74351911 35.73643276 -3.7734375 36.37109375 C-10.62521311 36.37923125 -15.271065 36.31674532 -20.6875 31.9375 C-25.2537585 26.04942983 -26.1644389 21.32699589 -26.09375 14.01953125 C-25.34642097 8.34989083 -22.30340743 5.12987956 -18.046875 1.5625 C-12.22364915 -2.35593235 -6.42810106 -1.85216471 0 0 Z " fill="#6C7381" transform="translate(71.6875,35.0625)"/>
<path d="M0 0 C6.14411428 3.45682772 9.90920459 8.45487148 11.96484375 15.10546875 C12.56596133 20.31515442 12.56596133 20.31515442 10.70939636 22.75605774 C8.52886281 24.4426999 7.41117457 24.47009923 4.67700195 24.44604492 C3.81633621 24.44581833 2.95567047 24.44559174 2.06892395 24.44535828 C0.68129097 24.42213249 0.68129097 24.42213249 -0.734375 24.3984375 C-1.68456009 24.39419266 -2.63474518 24.38994781 -3.61372375 24.38557434 C-6.65032213 24.36877359 -9.68625827 24.33111867 -12.72265625 24.29296875 C-14.78058938 24.27792372 -16.8385329 24.264235 -18.89648438 24.25195312 C-23.94296373 24.21886546 -28.98894769 24.16707337 -34.03515625 24.10546875 C-33.6887207 23.56132324 -33.34228516 23.01717773 -32.98535156 22.45654297 C-32.53256836 21.73998535 -32.07978516 21.02342773 -31.61328125 20.28515625 C-31.1637207 19.57601074 -30.71416016 18.86686523 -30.25097656 18.13623047 C-26.86905038 12.487463 -26.51739454 6.5268523 -26.03515625 0.10546875 C-18.28058308 -3.55317386 -7.93312731 -3.14665944 0 0 Z " fill="#707784" transform="translate(115.03515625,47.89453125)"/>
<path d="M0 0 C0.08636719 0.845625 0.17273437 1.69125 0.26171875 2.5625 C1.07623477 9.13840914 1.99485038 14.13755818 5.9765625 19.51171875 C7 21 7 21 7 23 C-7.19 23 -21.38 23 -36 23 C-37.62758588 19.74482825 -37.54918827 16.5172732 -37 13 C-34.04502875 6.20724451 -29.14596715 1.31515787 -22.21875 -1.46484375 C-14.92257531 -3.22466053 -6.99385215 -2.60236359 0 0 Z " fill="#6C7381" transform="translate(39,48)"/>
<path d="M0 0 C4.3272159 2.24754102 6.98025508 4.81875723 9.0625 9.31640625 C9.90664184 15.20621408 9.62201094 20.3790201 6.0625 25.31640625 C2.49922693 29.04794499 -0.75912645 30.65033268 -5.9375 30.87890625 C-10.70980257 30.59604941 -14.41549926 29.65156345 -17.9375 26.31640625 C-20.60051242 22.6735317 -21.78648753 19.25603942 -22.5 14.81640625 C-21.61066238 9.28274997 -18.93566217 5.13825999 -14.8125 1.37890625 C-10.21996944 -1.22352773 -4.97657118 -1.75584669 0 0 Z " fill="#6D7482" transform="translate(35.9375,9.68359375)"/>
<path d="M0 0 C4.3272159 2.24754102 6.98025508 4.81875723 9.0625 9.31640625 C9.90664184 15.20621408 9.62201094 20.3790201 6.0625 25.31640625 C2.49922693 29.04794499 -0.75912645 30.65033268 -5.9375 30.87890625 C-10.70980257 30.59604941 -14.41549926 29.65156345 -17.9375 26.31640625 C-20.60051242 22.6735317 -21.78648753 19.25603942 -22.5 14.81640625 C-21.61066238 9.28274997 -18.93566217 5.13825999 -14.8125 1.37890625 C-10.21996944 -1.22352773 -4.97657118 -1.75584669 0 0 Z " fill="#6D7481" transform="translate(107.9375,9.68359375)"/>
</svg>
