<?xml version="1.0" encoding="UTF-8"?>
<svg version="1.1" xmlns="http://www.w3.org/2000/svg" width="115" height="114">
<path d="M0 0 C37.95 0 75.9 0 115 0 C115 37.62 115 75.24 115 114 C77.05 114 39.1 114 0 114 C0 76.38 0 38.76 0 0 Z " fill="#6B7280" transform="translate(0,0)"/>
<path d="M0 0 C37.95 0 75.9 0 115 0 C115 37.62 115 75.24 115 114 C77.05 114 39.1 114 0 114 C0 76.38 0 38.76 0 0 Z M11 42 C10.9175 52.291875 10.835 62.58375 10.75 73.1875 C10.71358398 76.43102295 10.67716797 79.6745459 10.63964844 83.01635742 C10.6279658 85.58772113 10.61777298 88.15909222 10.609375 90.73046875 C10.59892151 91.39500565 10.58846802 92.05954254 10.57769775 92.74421692 C10.54829955 94.71234358 10.54664268 96.68082385 10.54589844 98.64916992 C10.53701599 99.7572551 10.52813354 100.86534027 10.51898193 102.00700378 C11.11527135 105.71724271 12.40876773 107.32601311 15 110 C18.69044483 112.46029655 21.50241524 112.29571183 25.77270508 112.29052734 C26.56329819 112.29724457 27.3538913 112.30396179 28.16844177 112.31088257 C30.78553533 112.32990053 33.40237286 112.3337889 36.01953125 112.3359375 C37.83933111 112.34236367 39.65912993 112.34909189 41.47892761 112.35610962 C45.29627883 112.3680925 49.1135395 112.37178949 52.9309082 112.37060547 C57.81692268 112.37040242 62.70235458 112.39768513 67.58823109 112.43214989 C71.34839023 112.45441607 75.10840923 112.45844307 78.86862755 112.45738602 C80.66952201 112.45974315 82.47042028 112.46857301 84.27124977 112.48405075 C86.79428158 112.50370183 89.31605823 112.49787635 91.83911133 112.48583984 C92.5795871 112.49707886 93.32006287 112.50831787 94.08297729 112.51989746 C99.1798242 112.45827621 102.16226 111.34930281 106 108 C108.1280833 104.30223394 108.24450452 101.0478424 108.22705078 96.83276367 C108.22668823 94.97596985 108.22668823 94.97596985 108.22631836 93.08166504 C108.21608643 91.79014526 108.20585449 90.49862549 108.1953125 89.16796875 C108.19329834 87.97385376 108.19128418 86.77973877 108.18920898 85.54943848 C108.17875719 81.09541982 108.15083461 76.64145599 108.125 72.1875 C108.08375 62.225625 108.0425 52.26375 108 42 C75.99 42 43.98 42 11 42 Z " fill="#FBFBFC" transform="translate(0,0)"/>
<path d="M0 0 C2.61593153 1.83115207 2.96989455 2.90968366 4 6 C4 8.31 4 10.62 4 13 C12.91 13 21.82 13 31 13 C31 10.03 31 7.06 31 4 C32.625 1.4375 32.625 1.4375 35 0 C38.32463947 -0.48484326 40.20427601 -0.42934748 43.171875 1.171875 C45 3 45 3 45.390625 5.69921875 C45.34421875 6.68535156 45.2978125 7.67148438 45.25 8.6875 C45.21390625 9.68136719 45.1778125 10.67523438 45.140625 11.69921875 C45.09421875 12.45847656 45.0478125 13.21773437 45 14 C46.02480469 13.94199219 47.04960938 13.88398438 48.10546875 13.82421875 C49.46610011 13.77730043 50.82678096 13.73180248 52.1875 13.6875 C53.19780273 13.6246582 53.19780273 13.6246582 54.22851562 13.56054688 C58.26303321 13.46214401 59.79311935 13.82626445 62.92578125 16.45703125 C63.95251953 17.71580078 63.95251953 17.71580078 65 19 C65.33 19.33 65.66 19.66 66 20 C66 24.62 66 29.24 66 34 C33.99 34 1.98 34 -31 34 C-31 20 -31 20 -27 15 C-23.93466836 13.46733418 -20.73245728 13.89723529 -17.375 13.9375 C-16.31539062 13.94426758 -16.31539062 13.94426758 -15.234375 13.95117188 C-13.48954725 13.96296125 -11.744763 13.98089676 -10 14 C-10.05220703 12.86111328 -10.05220703 12.86111328 -10.10546875 11.69921875 C-10.13253906 10.70535156 -10.15960937 9.71148437 -10.1875 8.6875 C-10.22230469 7.70136719 -10.25710937 6.71523437 -10.29296875 5.69921875 C-10 3 -10 3 -8.70703125 1.16796875 C-5.85199133 -0.78547961 -3.33623765 -0.35745403 0 0 Z " fill="#6C7381" transform="translate(42,1)"/>
</svg>
