<?xml version="1.0" encoding="UTF-8"?>
<svg version="1.1" xmlns="http://www.w3.org/2000/svg" width="111" height="109">
<path d="M0 0 C36.63 0 73.26 0 111 0 C111 35.97 111 71.94 111 109 C74.37 109 37.74 109 0 109 C0 73.03 0 37.06 0 0 Z " fill="#6B7280" transform="translate(0,0)"/>
<path d="M0 0 C36.63 0 73.26 0 111 0 C111 35.97 111 71.94 111 109 C74.37 109 37.74 109 0 109 C0 73.03 0 37.06 0 0 Z M15.7890625 27.6640625 C13.06222124 31.22443603 10.94795943 34.96946606 9 39 C8.38125 40.2684375 8.38125 40.2684375 7.75 41.5625 C3.94606233 53.92529743 5.00254558 68.50805318 10.4765625 80.13671875 C17.72758876 93.33093776 28.55281792 102.52114387 43 107 C57.16494807 109.90662409 70.37318033 107.9227331 82.78125 100.52734375 C95.23483475 91.95454157 102.31595684 81.52902247 105.34375 66.85546875 C107.85443512 52.10519365 104.41145774 39.30062638 96 27 C88.84272036 17.06775813 76.96856824 10.7597326 65.11328125 8.43359375 C44.82632553 5.60818336 29.04001562 12.19581841 15.7890625 27.6640625 Z " fill="#FDFDFD" transform="translate(0,0)"/>
<path d="M0 0 C2 2 2 2 2.22705078 4.70556641 C2.21134033 6.38658447 2.21134033 6.38658447 2.1953125 8.1015625 C2.18564453 9.91914062 2.18564453 9.91914062 2.17578125 11.7734375 C2.15902344 13.04445313 2.14226563 14.31546875 2.125 15.625 C2.11597656 16.90375 2.10695313 18.1825 2.09765625 19.5 C2.07402303 22.66685167 2.04107629 25.83333424 2 29 C2.75627686 29.2897168 3.51255371 29.57943359 4.29174805 29.87792969 C7.72329712 31.29967309 10.73514898 33.19843265 13.8125 35.25 C14.40998047 35.61996094 15.00746094 35.98992188 15.62304688 36.37109375 C17.33203125 37.515625 17.33203125 37.515625 20 40 C20.51171875 43.171875 20.51171875 43.171875 20 46 C18 48 18 48 15.66088867 48.29614258 C12.52190325 47.94679041 11.00896565 47.05485611 8.42578125 45.26171875 C7.59369141 44.68873047 6.76160156 44.11574219 5.90429688 43.52539062 C5.04900391 42.91888672 4.19371094 42.31238281 3.3125 41.6875 C2.44560547 41.09259766 1.57871094 40.49769531 0.68554688 39.88476562 C-5.7158747 35.42618795 -5.7158747 35.42618795 -8 32 C-8.38590824 27.69669436 -8.32920504 23.38462303 -8.31567383 19.06616211 C-8.31250578 16.94137671 -8.33600876 14.81797345 -8.36132812 12.69335938 C-8.36360037 11.34635593 -8.36430496 9.99934873 -8.36328125 8.65234375 C-8.36626221 7.42507568 -8.36924316 6.19780762 -8.37231445 4.93334961 C-8.24945068 3.96534424 -8.12658691 2.99733887 -8 2 C-4.77626323 -0.14915785 -3.73296326 -0.38286803 0 0 Z " fill="#F6F7F7" transform="translate(59,27)"/>
</svg>
